<svg xmlns="http://www.w3.org/2000/svg" viewBox="0 0 49.476 45.637" fill="#fff">
  <path d="M397.51,117.115l-.13-.093a.805.805,0,0,1-.13-.074c-1.027-.736-2.424-1.707-4.045-2.814l-.476-.328v6.785c2-1.4,3.711-2.591,4.886-3.4a.294.294,0,0,0-.1-.074Z" transform="translate(-349.357 -101.238)"/>
  <path d="M166.111,4.961c-2.758-1.911-5.183-3.6-6.673-4.632a1.833,1.833,0,0,0-2.1,0l-7.093,4.923h16.265Z" transform="translate(-133.655 0.001)"/>
  <path d="M15.864,113.637l-4.558,3.16c-.037.019-.074.056-.111.074l-.223.148,4.886,3.42v-6.8Z" transform="translate(-9.76 -101.087)"/>
  <path d="M89.723,88.729l9.413-6.543c2.134-1.472,4.336-2.993,6.357-4.41V64.251H71.9V77.776L87.65,88.729a1.794,1.794,0,0,0,2.072,0Zm-5.6-7.626A5.357,5.357,0,0,1,82.7,79.229a6.913,6.913,0,0,1-.588-2.888,7.864,7.864,0,0,1,.7-3.29,6.577,6.577,0,0,1,2.462-2.938,7.588,7.588,0,0,1,7-.291A5.331,5.331,0,0,1,94.5,71.974a5.5,5.5,0,0,1,.7,2.7,5.354,5.354,0,0,1-1.453,3.674A3.874,3.874,0,0,1,90.842,79.8a1.965,1.965,0,0,1-.866-.167,1.128,1.128,0,0,1-.532-.513,1.225,1.225,0,0,1-.074-.2,3.375,3.375,0,0,1-.736.532,2.356,2.356,0,0,1-2.517-.037,2.769,2.769,0,0,1-1.027-1.194,3.8,3.8,0,0,1-.384-1.726,5.05,5.05,0,0,1,.588-2.282,4.268,4.268,0,0,1,1.472-1.726,2.665,2.665,0,0,1,2.975-.241,2.631,2.631,0,0,1,.717.588l.111-.551a.256.256,0,0,1,.241-.186h1.212a.215.215,0,0,1,.186.074.258.258,0,0,1,.037.2l-.971,4.6a8.541,8.541,0,0,0-.2,1.008.169.169,0,0,0,.074.148.2.2,0,0,0,.185.074,1.551,1.551,0,0,0,.81-.365,3.433,3.433,0,0,0,1.157-1.4,3.831,3.831,0,0,0,.439-1.781,3.959,3.959,0,0,0-.551-2.022,4.038,4.038,0,0,0-1.651-1.509,5.373,5.373,0,0,0-2.462-.569,5.65,5.65,0,0,0-2.814.717,4.9,4.9,0,0,0-1.967,2.059,6.131,6.131,0,0,0-.7,2.907,5.11,5.11,0,0,0,.7,2.758,4,4,0,0,0,1.985,1.707,7.862,7.862,0,0,0,2.975.55,6.546,6.546,0,0,0,2.907-.569,4.3,4.3,0,0,0,1.726-1.4.228.228,0,0,1,.186-.093H95.32a.2.2,0,0,1,.186.111.194.194,0,0,1,.019.223,5.145,5.145,0,0,1-1.249,1.528,6.518,6.518,0,0,1-2.1,1.231,8.482,8.482,0,0,1-2.907.439,10.283,10.283,0,0,1-2.87-.384A6.442,6.442,0,0,1,84.12,81.1Z" transform="translate(-63.958 -57.155)"/>
  <path d="M293.1,157.1c-2.573,1.8-8.108,5.622-13.235,9.19l-5.974,4.156,19.191,13.346a.542.542,0,0,0,.037-.167V157.283c0-.056-.019-.111-.019-.185Z" transform="translate(-243.642 -139.748)"/>
  <path d="M.019,157.1c0,.074-.019.13-.019.186v26.339c0,.056.019.111.019.167l19.2-13.346Z" transform="translate(0 -139.748)"/>
  <path d="M36.143,289.345a3.64,3.64,0,0,1-4.212-.019l-1.8-1.249L10.465,301.751a1.619,1.619,0,0,0,.606.148H57.015a1.619,1.619,0,0,0,.606-.148L37.955,288.077Z" transform="translate(-9.309 -256.262)"/>
  <path d="M205.652,146.787a1.451,1.451,0,0,0-.717.2,2.369,2.369,0,0,0-.662.643,3.48,3.48,0,0,0-.551,1.138A3.94,3.94,0,0,0,203.5,150a1.938,1.938,0,0,0,.4,1.3,1.124,1.124,0,0,0,1.546.241,2.806,2.806,0,0,0,.736-.625,3.4,3.4,0,0,0,.588-1.082,3.68,3.68,0,0,0,.241-1.3,1.873,1.873,0,0,0-.4-1.3,1.192,1.192,0,0,0-.959-.445Z" transform="translate(-181.026 -130.576)"/>
</svg>
