<svg xmlns="http://www.w3.org/2000/svg" width="58.26" height="55.29" viewBox="0 0 58.26 55.29">
  <path d="M62.787,31.229H83.455l-4.088-8.176V3.123h1.562a1.562,1.562,0,0,0,0-3.123H65.314a1.562,1.562,0,0,0,0,3.123h1.562V23.052Z" transform="translate(-54.384)" fill="#e8482e"/>
  <path d="M30.633,256.67H6.842L.165,270.024a1.56,1.56,0,0,0,1.4,2.26H35.913a1.561,1.561,0,0,0,1.4-2.26Z" transform="translate(0 -222.319)" fill="#e8482e"/>
  <path d="M320.508,0H304.895a1.562,1.562,0,1,0,0,3.123h1.562v40.6a6.246,6.246,0,0,0,12.492,0V31.228h-4.684a1.562,1.562,0,1,1,0-3.123h4.684V21.86h-4.684a1.562,1.562,0,1,1,0-3.123h4.684V12.492h-4.684a1.562,1.562,0,1,1,0-3.123h4.684V3.123h1.561a1.562,1.562,0,1,0,0-3.123Z" transform="translate(-262.737)" fill="#e8482e"/>
</svg>
