<svg xmlns="http://www.w3.org/2000/svg" width="60" height="60" viewBox="0 0 60 60">
  <path d="M33.645,0a6.6,6.6,0,0,0-3.092,12.431L26.945,23.792c-.184-.011-.37-.041-.557-.041a9.193,9.193,0,0,0-6.948,3.216l-8.432-7.4a5.888,5.888,0,0,0,.866-3.072,5.941,5.941,0,1,0-2.721,4.989l8.823,7.71a9.11,9.11,0,0,0,1.031,9.3L11.339,46.16a7.175,7.175,0,0,0-4.082-1.3,7.257,7.257,0,1,0,7.257,7.257,7.151,7.151,0,0,0-1.3-4.1l7.649-7.649a9.2,9.2,0,0,0,10.617.33l3.587,4.041a6.537,6.537,0,0,0-1.422,4.082,6.6,6.6,0,1,0,6.6-6.6,6.527,6.527,0,0,0-3.134.8l-3.669-4.1a9.151,9.151,0,0,0,1.855-8.37L49.767,26.1a5.271,5.271,0,1,0-.948-3.01,4.7,4.7,0,0,0,.02.536L34.223,28.121a9.275,9.275,0,0,0-4.68-3.793l3.546-11.153c.182.015.371.02.557.02A6.6,6.6,0,1,0,33.646,0Z" fill="#e8482e"/>
</svg>
