<svg xmlns="http://www.w3.org/2000/svg" width="58.26" height="55.29" viewBox="0 0 58.26 55.29">
  <path d="M32.564,0A27.231,27.231,0,0,1,50.717,13.074h-10.4A35.077,35.077,0,0,0,37.988,6.86,18.285,18.285,0,0,0,32.564,0ZM21.757,0a18.285,18.285,0,0,0-5.423,6.86,35.061,35.061,0,0,0-2.327,6.213H3.6A27.227,27.227,0,0,1,21.758,0Zm6.7.911c2.682.6,5.222,3.065,7.225,7.1a31.307,31.307,0,0,1,1.943,5.059H28.456V.91Zm-2.59,0V13.074H16.7a31.3,31.3,0,0,1,1.943-5.059c2-4.039,4.544-6.5,7.225-7.1ZM52.032,15.664a27.073,27.073,0,0,1,2.287,9.714H42.034a52.648,52.648,0,0,0-1.093-9.714Zm-13.741,0a49.93,49.93,0,0,1,1.154,9.714H28.456V15.664h9.835Zm-12.426,0v9.714H14.876a49.922,49.922,0,0,1,1.154-9.714h9.835Zm-12.487,0a52.609,52.609,0,0,0-1.093,9.714H0a27.073,27.073,0,0,1,2.287-9.714Zm40.94,12.3a27.076,27.076,0,0,1-2.287,9.714H40.942a52.529,52.529,0,0,0,1.093-9.714H54.318Zm-14.874,0a49.922,49.922,0,0,1-1.154,9.714H28.455V27.968Zm-13.58,0v9.714H16.028a49.931,49.931,0,0,1-1.154-9.714Zm-13.58,0a52.609,52.609,0,0,0,1.093,9.714H2.287A27.073,27.073,0,0,1,0,27.968H12.284Zm38.431,12.3A27.225,27.225,0,0,1,32.541,53.346a18.316,18.316,0,0,0,5.444-6.881,34.943,34.943,0,0,0,2.327-6.193Zm-13.094,0a31.308,31.308,0,0,1-1.943,5.059c-2,4.039-4.544,6.5-7.225,7.1V40.272Zm-11.759,0V52.436c-2.682-.6-5.222-3.065-7.225-7.1a31.33,31.33,0,0,1-1.943-5.059ZM14,40.273a34.943,34.943,0,0,0,2.327,6.193,18.316,18.316,0,0,0,5.444,6.881A27.224,27.224,0,0,1,3.6,40.273Z" fill="#e8482e"/>
</svg>
