<svg xmlns="http://www.w3.org/2000/svg" width="58.26" height="55.29" viewBox="0 0 58.26 55.29">
  <path d="M21.24,0,0,9.71l6.448,7.528L28.257,7.547ZM37.019,0,30,7.548l21.809,9.691L58.259,9.71ZM29.13,9.823,10.279,18.206,29.13,26.569,47.98,18.206ZM6.467,19.154,0,26.7l21.24,9.71,7.017-7.567c-7.25-3.261-14.551-6.409-21.79-9.692Zm45.326,0Q40.907,24.02,30,28.845l7.017,7.567L58.26,26.7ZM7.282,32.7V46.111L27.916,55.29V32.79l-4.893,5.272-1.195,1.271-1.593-.72Zm43.695,0L38.025,38.612l-1.593.72-1.195-1.271L30.344,32.79V55.271l20.634-9.16Z" fill="#e8482e"/>
</svg>
